<?xml version="1.0" encoding="UTF-8"?>
<!-- Generator: Adobe Illustrator 25.2.1, SVG Export Plug-In . SVG Version: 6.00 Build 0)  -->
<svg version="1.1" id="Layer_1" xmlns="http://www.w3.org/2000/svg" xmlns:xlink="http://www.w3.org/1999/xlink" x="0px" y="0px" viewBox="0 0 131 39" style="enable-background:new 0 0 131 39;" xml:space="preserve">
<style type="text/css">
	.st0{fill-rule:evenodd;clip-rule:evenodd;fill:#00D1D2;}
	.st1{fill-rule:evenodd;clip-rule:evenodd;fill:#FFFDFB;}
</style>
<g>
	<g>
		<g>
			<g>
				<g>
					<g>
						<g>
							<path class="st0" d="M29.4,20.6c-0.6,6.9-1.9,11.6-4,13.8c-0.8,0.9-1.7,1.3-2.7,1.3c-0.8,0-1.1-0.3-1.1-0.4         c-0.3-0.3-0.4-0.9-0.4-1.5c0-2.5,1.6-6.2,4-9.2c1.3-1.7,2.8-3,4.2-4L29.4,20.6 M34.2,17H34c-0.6,0-1.4,0.1-2.4,0.3         c0.1-3.7,0-6.5,0-6.8c0-0.5-0.4-0.9-0.9-1c-0.5,0-1,0.3-1.1,0.8c0,0-0.4,1.8-1.2,3.5c-1.2,2.6-2.3,3.1-3,3.1         c-0.1,0-0.1,0-0.2-0.1c-0.4-0.5-0.5-1.9-0.4-3.4l0-0.2c0,0,0,0,0-0.1c0-0.3,0.1-0.7,0.1-1c0.1-0.6-0.3-1.1-0.8-1.2h0         C23.5,11,23,11.4,22.9,12v0c0,0.2-0.1,0.7-0.2,1.3C22.7,13.9,22.2,17,20,17c-0.9,0-1.4-0.4-2.2-2.7c-0.5-1.4-1.2-3.1-2.9-3.1         c-1.3,0-2.3,1.2-3.2,2.3c-0.7,0.9-1.5,1.9-2.1,1.9c-0.5,0-0.7-0.3-0.9-2.1c-0.1-0.8-0.2-1.6-0.5-2.2C7.5,9.8,6.5,9.5,5.8,9.5         c-1.4,0-2.6,1.2-3.7,3.8c0.1-0.9,0.2-1.5,0.2-1.6l0-0.1c0.1-0.5-0.2-1-0.6-1.1l-0.2-0.1c-0.5-0.1-1,0.1-1.1,0.6l0,0.1         c0,0.1-0.9,3.5,0.5,7.1C1,18.7,1.4,19,1.8,19c0.5,0,0.9-0.3,1-0.8c0,0,0.4-1.8,1-3.6c1.1-3,1.9-3,2-3c0.2,0,0.3,0,0.4,0.3         c0.2,0.4,0.3,1,0.4,1.7c0.1,0.8,0.2,1.6,0.6,2.4c0.6,1.3,1.6,1.5,2.4,1.5c1.7,0,2.8-1.4,3.8-2.7c0.4-0.6,1.2-1.6,1.5-1.6         c0.3,0,0.7,1.1,1,1.8c0.6,1.7,1.5,4,4.1,4c1.4,0,2.5-0.6,3.2-1.5c0.1,0.3,0.3,0.5,0.4,0.7c0.5,0.5,1.1,0.8,1.8,0.8         c1.9,0,3.3-1.4,4.2-3c0,0.7,0,1.3-0.1,2.1c-1.8,0.9-3.9,2.5-6,5.1c-2.7,3.4-4.5,7.6-4.5,10.5c0,1.2,0.3,2.1,0.8,2.8         c0.4,0.6,1.3,1.2,2.7,1.2c1.6,0,3-0.6,4.2-1.9c3.1-3.3,4.2-10.5,4.6-16.4c0.8-0.3,1.7-0.5,2.5-0.5h0.1c0.5,0,0.9-0.4,0.9-0.9         v-0.3C35,17.4,34.6,17,34.2,17"/>
							<path class="st1" d="M37.3,5.9v12.2c0,0.2,0.1,0.5,0.3,0.6c0.2,0.2,0.4,0.3,0.6,0.3h0.3c0.2,0,0.5-0.1,0.6-0.3         c0.2-0.2,0.3-0.4,0.3-0.6V5.9c0-0.2-0.1-0.5-0.3-0.6C38.9,5.1,38.7,5,38.4,5h-0.3c-0.2,0-0.5,0.1-0.6,0.3         C37.4,5.4,37.3,5.7,37.3,5.9z M91.3,5c-1.9,0-3.2,0.4-4.1,1.1C86.4,6.8,86,7.8,86,8.8v0.4c0,1,0.4,2,1.3,2.7         c0.9,0.7,2.2,1.1,4.1,1.1h5.8c0.6,0,1.2,0.1,1.7,0.2c0.5,0.1,0.9,0.3,1.2,0.5c0.2,0.1,0.3,0.3,0.4,0.5         c0.1,0.2,0.1,0.5,0.1,0.8c0,0.3,0,0.6-0.1,0.8s-0.2,0.3-0.4,0.5c-0.3,0.2-0.7,0.4-1.2,0.5s-1.1,0.2-1.7,0.2h-6.9         c-0.4,0-0.8-0.1-1.1-0.2c-0.4-0.1-0.7-0.4-1-0.6l-0.2-0.2l-0.2-0.2c-0.2-0.2-0.4-0.2-0.6-0.2c-0.2,0-0.4,0.1-0.6,0.3         l-0.1,0.1l-0.1,0.1c-0.2,0.2-0.2,0.4-0.2,0.6c0,0.2,0.1,0.4,0.3,0.6l0.2,0.2l0.2,0.2c0.5,0.5,1,0.8,1.6,1         c0.6,0.2,1.2,0.4,1.9,0.4h6.9c1.9,0,3.2-0.4,4.1-1.1s1.3-1.6,1.3-2.7v-0.4c0-1-0.4-2-1.3-2.7c-0.9-0.7-2.2-1.1-4.1-1.1h-5.8         c-0.6,0-1.2-0.1-1.7-0.2c-0.5-0.1-0.9-0.3-1.2-0.5c-0.2-0.1-0.3-0.3-0.4-0.5C88.1,9.6,88,9.4,88,9s0-0.6,0.1-0.8         c0.1-0.2,0.2-0.3,0.4-0.5c0.3-0.2,0.7-0.4,1.2-0.5s1.1-0.2,1.7-0.2l3.2,0l3.2,0c0.4,0,0.8,0.1,1.1,0.2c0.3,0.1,0.7,0.3,1,0.6         l0.3,0.3l0.3,0.3c0.2,0.2,0.4,0.2,0.6,0.2c0.2,0,0.4-0.1,0.6-0.3l0.1-0.1l0.1-0.1c0.2-0.2,0.2-0.4,0.2-0.6         c0-0.2-0.1-0.4-0.3-0.6l-0.3-0.3l-0.3-0.3c-0.5-0.4-1-0.8-1.6-1S98.3,5,97.7,5l-3.2,0L91.3,5L91.3,5z M60.6,17.3         c-0.1-0.1-0.3-0.2-0.4-0.3c-0.2-0.1-0.3-0.1-0.5-0.1H49.4c-0.7,0-1.4-0.1-2-0.2c-0.6-0.2-1-0.4-1.4-0.7         c-0.3-0.2-0.5-0.5-0.7-0.9c-0.1-0.3-0.2-0.7-0.2-1.1V7.4c0-0.1,0-0.2,0.1-0.2c0.1-0.1,0.1-0.1,0.2-0.1H55         c0.7,0,1.4,0.1,2,0.2c0.6,0.2,1,0.4,1.4,0.7c0.3,0.2,0.5,0.5,0.7,0.9s0.2,0.7,0.2,1.1v3.8c0,0.2,0.1,0.5,0.3,0.6         s0.4,0.3,0.6,0.3h0.3c0.2,0,0.5-0.1,0.6-0.3c0.2-0.2,0.3-0.4,0.3-0.6V10c0-1.4-0.6-2.6-1.6-3.5C58.6,5.6,57.1,5,55,5H44         c-0.2,0-0.5,0.1-0.6,0.3s-0.3,0.4-0.3,0.6V14c0,1.4,0.6,2.6,1.6,3.5c1.1,0.9,2.6,1.4,4.7,1.4h9.6c0.1,0,0.2,0,0.3,0.1         c0.1,0,0.2,0.1,0.2,0.2l1.1,1.1l1.1,1.1c0.2,0.2,0.4,0.3,0.6,0.3c0.2,0,0.4-0.1,0.6-0.3l0.1-0.1l0.1-0.1         c0.2-0.2,0.3-0.4,0.3-0.6c0-0.2-0.1-0.5-0.3-0.6l-1.3-1.3L60.6,17.3L60.6,17.3z M76.7,5h-5.6c-2.1,0-3.6,0.6-4.7,1.4         c-1.1,0.9-1.6,2.1-1.6,3.5V14c0,1.4,0.6,2.6,1.6,3.5s2.6,1.4,4.7,1.4h5.6c2.1,0,3.6-0.6,4.7-1.4c1.1-0.9,1.6-2.1,1.6-3.5V10         c0-1.4-0.6-2.6-1.6-3.5C80.3,5.6,78.7,5,76.7,5L76.7,5z M76.7,7.1c0.7,0,1.4,0.1,2,0.2c0.6,0.2,1.1,0.4,1.4,0.7         c0.3,0.2,0.5,0.5,0.7,0.9S81,9.6,81,10V14c0,0.4-0.1,0.7-0.2,1.1c-0.1,0.3-0.4,0.6-0.7,0.9c-0.4,0.3-0.9,0.6-1.4,0.7         c-0.6,0.2-1.2,0.2-2,0.2h-5.6c-0.7,0-1.4-0.1-2-0.2c-0.6-0.2-1-0.4-1.4-0.7c-0.3-0.2-0.5-0.5-0.7-0.9         c-0.1-0.3-0.2-0.7-0.2-1.1V10c0-0.4,0.1-0.7,0.2-1.1c0.1-0.3,0.4-0.6,0.7-0.9c0.4-0.3,0.9-0.6,1.4-0.7c0.6-0.2,1.2-0.2,2-0.2         L76.7,7.1L76.7,7.1z M118.9,4.1c-2.3,0-4.3,0.9-5.8,2.4c-1.5,1.5-2.4,3.5-2.4,5.8s0.9,4.3,2.4,5.8c1.5,1.5,3.5,2.4,5.8,2.4         c2.3,0,4.3-0.9,5.8-2.4s2.4-3.6,2.4-5.8c0-2.3-0.9-4.3-2.4-5.8C123.3,5,121.2,4.1,118.9,4.1 M124.4,3.6l2.4,4.2l2.4,4.2         c1.2,2.1,1.1,4.5,0,6.3c-1.1,1.8-3,3.1-5.5,3.1h-9.7c-2.4,0-4.4-1.3-5.5-3.1c-1.1-1.8-1.2-4.2,0-6.3l2.4-4.2l2.4-4.2         c1.2-2.1,3.3-3.1,5.5-3.1C121.1,0.4,123.2,1.5,124.4,3.6"/>
						</g>
					</g>
				</g>
			</g>
		</g>
	</g>
</g>
</svg>