<svg aria-hidden="true" style="position: absolute; width: 0; height: 0; overflow: hidden;" version="1.1" xmlns="http://www.w3.org/2000/svg" xmlns:xlink="http://www.w3.org/1999/xlink">
<defs>
<symbol id="bag-icon" viewBox="0 0 32 32">
<path d="M26 5.333h-3.333v-3.333c0-1.105-0.895-2-2-2v0h-9.333c-1.105 0-2 0.895-2 2v0 3.333h-3.333c-1.105 0-2 0.895-2 2v0 22.667c0 1.105 0.895 2 2 2v0h20c1.105 0 2-0.895 2-2v0-22.667c0-1.105-0.895-2-2-2v0zM10.667 2c0-0.368 0.298-0.667 0.667-0.667v0h9.333c0.368 0 0.667 0.298 0.667 0.667v0 3.333h-10.667zM26.667 30c0 0.368-0.298 0.667-0.667 0.667v0h-20c-0.368 0-0.667-0.298-0.667-0.667v0-22.667c0-0.368 0.298-0.667 0.667-0.667v0h3.333v2.667h-0.667c-0.368 0-0.667 0.298-0.667 0.667v0 2h1.333v-1.333h1.333v1.333h1.333v-2c0-0.368-0.298-0.667-0.667-0.667v0h-0.667v-2.667h10.667v2.667h-0.667c-0.368 0-0.667 0.298-0.667 0.667v0 2h1.333v-1.333h1.333v1.333h1.333v-2c0-0.368-0.298-0.667-0.667-0.667v0h-0.667v-2.667h3.333c0.368 0 0.667 0.298 0.667 0.667v0z"></path>
</symbol>
<symbol id="person-icon" viewBox="0 0 32 32">
<path d="M16 15c-3.314 0-6-2.686-6-6s2.686-6 6-6c3.314 0 6 2.686 6 6v0c0 3.314-2.686 6-6 6v0zM16 5c-2.209 0-4 1.791-4 4s1.791 4 4 4c2.209 0 4-1.791 4-4v0c0-2.209-1.791-4-4-4v0z"></path>
<path d="M24 30h-16c-2.761 0-5-2.239-5-5v0c-0-0.003-0-0.006-0-0.009 0-0.122 0.022-0.24 0.062-0.348l-0.002 0.007c1.966-5.084 6.806-8.628 12.477-8.65h0.923c5.674 0.022 10.514 3.566 12.449 8.559l0.031 0.091c0.038 0.102 0.060 0.219 0.060 0.341 0 0.003 0 0.006-0 0.009v-0c0 2.761-2.239 5-5 5v0zM5 25.17c0.093 1.582 1.398 2.83 2.995 2.83 0.002 0 0.003 0 0.005 0h16c0.001 0 0.003 0 0.005 0 1.597 0 2.903-1.248 2.995-2.822l0-0.008c-1.718-4.225-5.785-7.153-10.538-7.17h-0.922c-4.755 0.017-8.822 2.945-10.513 7.094l-0.027 0.076z"></path>
</symbol>
</defs>
</svg>
